<svg xmlns="http://www.w3.org/2000/svg" width="0" height="0" aria-hidden="true" focusable="false">
  <!-- ═══════════════════════════════════════════════════════════════
       AL FAROOQUE — 3D Glass Icon Family (single source of truth)
       Injected inline once per page by js/glass-icons.js so gradients,
       filters and CSS-variable tints work in every browser.

       Material recipe shared by every symbol (135° top-left light):
         .gi-base  — frosted squircle: tint gradient + light border
         .gi-ink   — icon silhouette: deeper tint gradient
         .gi-hi    — glass highlight streak (top-left ellipse)
       Tint comes from CSS vars set in css/glass-icons.css:
         --gi-t  (main tint)  --gi-t2 (deep tint)  --gi-hl (highlight)
       ═══════════════════════════════════════════════════════════════ -->
  <defs>
    <linearGradient id="giBaseGrad" x1="0" y1="0" x2="1" y2="1">
      <stop offset="0" style="stop-color:var(--gi-hl,#ffffff)" stop-opacity="0.55"/>
      <stop offset="0.45" style="stop-color:var(--gi-t,#8CA05B)" stop-opacity="0.22"/>
      <stop offset="1" style="stop-color:var(--gi-t2,#566440)" stop-opacity="0.38"/>
    </linearGradient>
    <linearGradient id="giInkGrad" x1="0" y1="0" x2="1" y2="1">
      <stop offset="0" style="stop-color:var(--gi-t,#8CA05B)"/>
      <stop offset="1" style="stop-color:var(--gi-t2,#566440)"/>
    </linearGradient>
    <linearGradient id="giEdge" x1="0" y1="0" x2="0" y2="1">
      <stop offset="0" style="stop-color:var(--gi-hl,#ffffff)" stop-opacity="0.9"/>
      <stop offset="1" style="stop-color:var(--gi-hl,#ffffff)" stop-opacity="0.12"/>
    </linearGradient>
    <filter id="giShadow" x="-30%" y="-20%" width="160%" height="160%">
      <feDropShadow dx="0" dy="5" stdDeviation="7" style="flood-color:#20261A" flood-opacity="0.35"/>
    </filter>
    <filter id="giSoft" x="-40%" y="-40%" width="180%" height="180%">
      <feGaussianBlur stdDeviation="4"/>
    </filter>

    <!-- shared glass plate -->
    <g id="giPlate">
      <rect x="8" y="8" width="80" height="80" rx="24" fill="url(#giBaseGrad)" filter="url(#giShadow)"/>
      <rect x="8.75" y="8.75" width="78.5" height="78.5" rx="23.4" fill="none" stroke="url(#giEdge)" stroke-width="1.5" opacity="0.85"/>
      <ellipse class="gi-hi" cx="34" cy="24" rx="24" ry="11" style="fill:var(--gi-hl,#ffffff)" opacity="0.32" filter="url(#giSoft)"/>
    </g>

    <linearGradient id="giBaseGradW" x1="0" y1="0" x2="1" y2="1">
      <stop offset="0" style="stop-color:var(--gi-hl,#ffffff)" stop-opacity="0.55"/>
      <stop offset="0.45" style="stop-color:var(--gw-t,#B08D57)" stop-opacity="0.24"/>
      <stop offset="1" style="stop-color:var(--gw-t2,#6E5230)" stop-opacity="0.4"/>
    </linearGradient>
    <linearGradient id="giInkGradW" x1="0" y1="0" x2="1" y2="1">
      <stop offset="0" style="stop-color:var(--gw-t,#B08D57)"/>
      <stop offset="1" style="stop-color:var(--gw-t2,#6E5230)"/>
    </linearGradient>
    <linearGradient id="giBaseGradS" x1="0" y1="0" x2="1" y2="1">
      <stop offset="0" style="stop-color:var(--gi-hl,#ffffff)" stop-opacity="0.55"/>
      <stop offset="0.45" style="stop-color:var(--gs-t,#7E93A8)" stop-opacity="0.24"/>
      <stop offset="1" style="stop-color:var(--gs-t2,#46586B)" stop-opacity="0.4"/>
    </linearGradient>
    <linearGradient id="giInkGradS" x1="0" y1="0" x2="1" y2="1">
      <stop offset="0" style="stop-color:var(--gs-t,#7E93A8)"/>
      <stop offset="1" style="stop-color:var(--gs-t2,#46586B)"/>
    </linearGradient>
    <linearGradient id="giBaseGradA" x1="0" y1="0" x2="1" y2="1">
      <stop offset="0" style="stop-color:var(--gi-hl,#ffffff)" stop-opacity="0.55"/>
      <stop offset="0.45" style="stop-color:var(--ga-t,#8FB6C4)" stop-opacity="0.24"/>
      <stop offset="1" style="stop-color:var(--ga-t2,#4E7381)" stop-opacity="0.4"/>
    </linearGradient>
    <linearGradient id="giInkGradA" x1="0" y1="0" x2="1" y2="1">
      <stop offset="0" style="stop-color:var(--ga-t,#8FB6C4)"/>
      <stop offset="1" style="stop-color:var(--ga-t2,#4E7381)"/>
    </linearGradient>

    <g id="giPlateW">
      <rect x="8" y="8" width="80" height="80" rx="24" fill="url(#giBaseGradW)" filter="url(#giShadow)"/>
      <rect x="8.75" y="8.75" width="78.5" height="78.5" rx="23.4" fill="none" stroke="url(#giEdge)" stroke-width="1.5" opacity="0.85"/>
      <ellipse cx="34" cy="24" rx="24" ry="11" style="fill:var(--gi-hl,#ffffff)" opacity="0.32" filter="url(#giSoft)"/>
    </g>
    <g id="giPlateS">
      <rect x="8" y="8" width="80" height="80" rx="24" fill="url(#giBaseGradS)" filter="url(#giShadow)"/>
      <rect x="8.75" y="8.75" width="78.5" height="78.5" rx="23.4" fill="none" stroke="url(#giEdge)" stroke-width="1.5" opacity="0.85"/>
      <ellipse cx="34" cy="24" rx="24" ry="11" style="fill:var(--gi-hl,#ffffff)" opacity="0.32" filter="url(#giSoft)"/>
    </g>
    <g id="giPlateA">
      <rect x="8" y="8" width="80" height="80" rx="24" fill="url(#giBaseGradA)" filter="url(#giShadow)"/>
      <rect x="8.75" y="8.75" width="78.5" height="78.5" rx="23.4" fill="none" stroke="url(#giEdge)" stroke-width="1.5" opacity="0.85"/>
      <ellipse cx="34" cy="24" rx="24" ry="11" style="fill:var(--gi-hl,#ffffff)" opacity="0.32" filter="url(#giSoft)"/>
    </g>
  </defs>

  <!-- ── Divisions ─────────────────────────────────────────────── -->
  <symbol id="gi-wood" viewBox="0 0 96 96">
    <use href="#giPlateW"/>
    <g fill="url(#giInkGradW)">
      <path d="M48 26 27 42v26a4 4 0 0 0 4 4h34a4 4 0 0 0 4-4V42L48 26z" opacity="0.92"/>
      <rect x="41" y="52" width="14" height="20" rx="2.5" style="fill:var(--gi-hl,#fff)" opacity="0.34"/>
    </g>
    <path d="M48 26 27 42h42L48 26z" style="fill:var(--gi-hl,#fff)" opacity="0.22"/>
  </symbol>

  <symbol id="gi-steel" viewBox="0 0 96 96">
    <use href="#giPlateS"/>
    <g fill="url(#giInkGradS)">
      <rect x="28" y="27" width="40" height="9" rx="3.5"/>
      <rect x="28" y="60" width="40" height="9" rx="3.5"/>
      <rect x="42.5" y="33" width="11" height="30" rx="3"/>
    </g>
    <rect x="28" y="27" width="40" height="4" rx="2" style="fill:var(--gi-hl,#fff)" opacity="0.3"/>
  </symbol>

  <symbol id="gi-alu" viewBox="0 0 96 96">
    <use href="#giPlateA"/>
    <g fill="none" stroke="url(#giInkGradA)" stroke-width="6" stroke-linecap="round">
      <rect x="29" y="29" width="38" height="38" rx="7" style="fill:var(--ga-t,#8FB6C4)" fill-opacity="0.16"/>
      <line x1="48" y1="31" x2="48" y2="65"/>
      <line x1="31" y1="48" x2="65" y2="48"/>
    </g>
    <rect x="31" y="31" width="34" height="9" rx="4" style="fill:var(--gi-hl,#fff)" opacity="0.2"/>
  </symbol>

  <!-- ── About / values ────────────────────────────────────────── -->
  <symbol id="gi-target" viewBox="0 0 96 96">
    <use href="#giPlate"/>
    <circle cx="48" cy="48" r="21" fill="none" stroke="url(#giInkGrad)" stroke-width="6"/>
    <circle cx="48" cy="48" r="10" fill="none" stroke="url(#giInkGrad)" stroke-width="5" opacity="0.75"/>
    <circle cx="48" cy="48" r="3.6" fill="url(#giInkGrad)"/>
    <path d="M48 27a21 21 0 0 1 15 6" style="stroke:var(--gi-hl,#fff)" stroke-width="5" stroke-linecap="round" fill="none" opacity="0.4"/>
  </symbol>

  <symbol id="gi-gear" viewBox="0 0 96 96">
    <use href="#giPlate"/>
    <path fill="url(#giInkGrad)" d="M48 25l4.5 2.6 5.2-1 2.6 4.6 5 1.6.2 5.3 3.9 3.6-2.1 4.9 2.1 4.9-3.9 3.6-.2 5.3-5 1.6-2.6 4.6-5.2-1L48 71l-4.5-2.6-5.2 1-2.6-4.6-5-1.6-.2-5.3-3.9-3.6 2.1-4.9-2.1-4.9 3.9-3.6.2-5.3 5-1.6 2.6-4.6 5.2 1L48 25z"/>
    <circle cx="48" cy="48" r="9.5" style="fill:var(--gi-hl,#fff)" opacity="0.85"/>
    <circle cx="48" cy="48" r="9.5" style="fill:var(--gi-t,#8CA05B)" opacity="0.25"/>
  </symbol>

  <symbol id="gi-gem" viewBox="0 0 96 96">
    <use href="#giPlate"/>
    <g fill="url(#giInkGrad)">
      <path d="M36 30h24l10 13-22 25-22-25 10-13z"/>
    </g>
    <path d="M36 30h24l-6 13H42l-6-13z" style="fill:var(--gi-hl,#fff)" opacity="0.35"/>
    <path d="M26 43h44L48 68 26 43z" style="fill:var(--gi-hl,#fff)" opacity="0.14"/>
  </symbol>

  <symbol id="gi-flag" viewBox="0 0 96 96">
    <use href="#giPlate"/>
    <g fill="url(#giInkGrad)">
      <rect x="30" y="26" width="6" height="45" rx="3"/>
      <path d="M39 29h27l-6 9 6 9H39V29z"/>
    </g>
    <path d="M39 29h27l-3 4.5H39V29z" style="fill:var(--gi-hl,#fff)" opacity="0.3"/>
  </symbol>

  <!-- ── Header / utility ─────────────────────────────────────── -->
  <symbol id="gi-search" viewBox="0 0 96 96">
    <use href="#giPlate"/>
    <circle cx="44" cy="44" r="14" fill="none" stroke="url(#giInkGrad)" stroke-width="6.5"/>
    <line x1="55" y1="55" x2="67" y2="67" stroke="url(#giInkGrad)" stroke-width="7" stroke-linecap="round"/>
    <path d="M35 37a12 12 0 0 1 9-4" style="stroke:var(--gi-hl,#fff)" stroke-width="4.5" stroke-linecap="round" fill="none" opacity="0.45"/>
  </symbol>

  <symbol id="gi-heart" viewBox="0 0 96 96">
    <use href="#giPlate"/>
    <path fill="url(#giInkGrad)" d="M48 68 30 51c-6-6-6-15 0-20 5-5 13-5 18 0 5-5 13-5 18 0 6 5 6 14 0 20L48 68z"/>
    <ellipse cx="39" cy="38" rx="7" ry="4" style="fill:var(--gi-hl,#fff)" opacity="0.35" transform="rotate(-18 39 38)"/>
  </symbol>

  <symbol id="gi-bag" viewBox="0 0 96 96">
    <use href="#giPlate"/>
    <g fill="url(#giInkGrad)">
      <path d="M32 38h32l3 30a4 4 0 0 1-4 4.4H33A4 4 0 0 1 29 68l3-30z"/>
    </g>
    <path d="M40 44v-7a8 8 0 0 1 16 0v7" fill="none" stroke="url(#giInkGrad)" stroke-width="5.5" stroke-linecap="round"/>
    <rect x="33" y="39" width="30" height="6" rx="3" style="fill:var(--gi-hl,#fff)" opacity="0.28"/>
  </symbol>

  <symbol id="gi-user" viewBox="0 0 96 96">
    <use href="#giPlate"/>
    <circle cx="48" cy="41" r="10.5" fill="url(#giInkGrad)"/>
    <path d="M29 70c2-11 9-16 19-16s17 5 19 16" fill="url(#giInkGrad)" opacity="0.9"/>
    <ellipse cx="44" cy="37" rx="4.5" ry="3" style="fill:var(--gi-hl,#fff)" opacity="0.4"/>
  </symbol>

  <symbol id="gi-sun" viewBox="0 0 96 96">
    <use href="#giPlate"/>
    <circle cx="48" cy="48" r="12" fill="url(#giInkGrad)"/>
    <g stroke="url(#giInkGrad)" stroke-width="5.5" stroke-linecap="round">
      <line x1="48" y1="24" x2="48" y2="30"/><line x1="48" y1="66" x2="48" y2="72"/>
      <line x1="24" y1="48" x2="30" y2="48"/><line x1="66" y1="48" x2="72" y2="48"/>
      <line x1="31" y1="31" x2="35.3" y2="35.3"/><line x1="60.7" y1="60.7" x2="65" y2="65"/>
      <line x1="31" y1="65" x2="35.3" y2="60.7"/><line x1="60.7" y1="35.3" x2="65" y2="31"/>
    </g>
    <ellipse cx="44" cy="43" rx="5" ry="3.4" style="fill:var(--gi-hl,#fff)" opacity="0.45"/>
  </symbol>

  <symbol id="gi-moon" viewBox="0 0 96 96">
    <use href="#giPlate"/>
    <path fill="url(#giInkGrad)" d="M59 30a22 22 0 1 0 8 33 18 18 0 0 1-8-33z"/>
    <ellipse cx="46" cy="38" rx="6" ry="3.6" style="fill:var(--gi-hl,#fff)" opacity="0.35" transform="rotate(-24 46 38)"/>
  </symbol>

  <!-- ── Contact ──────────────────────────────────────────────── -->
  <symbol id="gi-pin" viewBox="0 0 96 96">
    <use href="#giPlate"/>
    <path fill="url(#giInkGrad)" d="M48 26c-9.4 0-17 7.4-17 16.6C31 55 48 71 48 71s17-16 17-28.4C65 33.4 57.4 26 48 26z"/>
    <circle cx="48" cy="42.5" r="6.5" style="fill:var(--gi-hl,#fff)" opacity="0.88"/>
  </symbol>

  <symbol id="gi-phone" viewBox="0 0 96 96">
    <use href="#giPlate"/>
    <path fill="url(#giInkGrad)" d="M36 27c3-1.6 6 0 7.6 3l3 5.7c1.3 2.5.6 5.4-1.6 7.2l-2.6 2.2c2.4 5.2 6.4 9.2 11.6 11.6l2.2-2.6c1.8-2.2 4.7-2.9 7.2-1.6l5.7 3c3 1.6 4.6 4.6 3 7.6-2.4 4.6-7.6 7.2-12.8 5.8-14.7-3.8-26-15.1-29.8-29.8-1.4-5.2 1.2-10.4 5.8-12.8z"/>
    <ellipse cx="41" cy="34" rx="5" ry="3" style="fill:var(--gi-hl,#fff)" opacity="0.35" transform="rotate(-30 41 34)"/>
  </symbol>

  <symbol id="gi-mail" viewBox="0 0 96 96">
    <use href="#giPlate"/>
    <rect x="28" y="34" width="40" height="28" rx="6" fill="url(#giInkGrad)"/>
    <path d="m30 38 18 13 18-13" fill="none" style="stroke:var(--gi-hl,#fff)" stroke-width="4.5" stroke-linecap="round" stroke-linejoin="round" opacity="0.85"/>
    <rect x="30" y="36" width="36" height="5" rx="2.5" style="fill:var(--gi-hl,#fff)" opacity="0.2"/>
  </symbol>

  <symbol id="gi-clock" viewBox="0 0 96 96">
    <use href="#giPlate"/>
    <circle cx="48" cy="48" r="20" fill="url(#giInkGrad)"/>
    <path d="M48 37v12l9 6" fill="none" style="stroke:var(--gi-hl,#fff)" stroke-width="5" stroke-linecap="round" stroke-linejoin="round" opacity="0.92"/>
    <ellipse cx="41" cy="38" rx="6" ry="3.6" style="fill:var(--gi-hl,#fff)" opacity="0.3" transform="rotate(-20 41 38)"/>
  </symbol>

  <!-- ── Socials ──────────────────────────────────────────────── -->
  <symbol id="gi-linkedin" viewBox="0 0 96 96">
    <use href="#giPlate"/>
    <g fill="url(#giInkGrad)">
      <rect x="30" y="41" width="9" height="27" rx="2.5"/>
      <circle cx="34.5" cy="32.5" r="5"/>
      <path d="M44 41h8.6v3.7c1.8-2.6 4.8-4.4 9-4.4 7 0 10.4 4.4 10.4 12.3V68h-9V54c0-3.8-1.6-5.9-4.7-5.9-3.3 0-5.3 2.3-5.3 5.9v14h-9V41z"/>
    </g>
  </symbol>

  <symbol id="gi-x" viewBox="0 0 96 96">
    <use href="#giPlate"/>
    <path fill="url(#giInkGrad)" d="M30 29h11l10 14 12-14h8L54.5 48 68 67H57L46 52 33 67h-8l18.5-21L30 29z"/>
  </symbol>

  <symbol id="gi-instagram" viewBox="0 0 96 96">
    <use href="#giPlate"/>
    <rect x="29" y="29" width="38" height="38" rx="11" fill="none" stroke="url(#giInkGrad)" stroke-width="6"/>
    <circle cx="48" cy="48" r="9.5" fill="none" stroke="url(#giInkGrad)" stroke-width="5.5"/>
    <circle cx="60.5" cy="35.5" r="3.4" fill="url(#giInkGrad)"/>
  </symbol>

  <symbol id="gi-whatsapp" viewBox="0 0 96 96">
    <use href="#giPlate"/>
    <path fill="url(#giInkGrad)" d="M48 27a20.6 20.6 0 0 0-17.7 31L28 69l11.4-2.2A20.6 20.6 0 1 0 48 27zm11.6 27.4c-.6 1.7-3.3 3.2-4.6 3.3-1.2.1-2.7.6-9-1.9-7.6-3-12.4-10.8-12.8-11.3-.4-.5-3-4-3-7.7s1.9-5.5 2.6-6.2c.7-.8 1.5-1 2-1h1.5c.5 0 1.1-.1 1.7 1.3l2.4 5.8c.2.5.3 1 0 1.6l-1 1.5-1.4 1.5c-.4.4-.9.9-.4 1.8s2.2 3.7 4.8 6c3.3 2.9 6 3.8 7 4.3.9.5 1.5.4 2-.2l3-3.5c.7-.9 1.3-.7 2.1-.4l5.2 2.5c.9.4 1.4.6 1.6 1 .2.3.2 1.7-.4 3.4z"/>
  </symbol>

  <!-- ── Commerce / badges ────────────────────────────────────── -->
  <symbol id="gi-door" viewBox="0 0 96 96">
    <use href="#giPlate"/>
    <rect x="34" y="27" width="28" height="44" rx="4" fill="url(#giInkGrad)"/>
    <rect x="38" y="31" width="20" height="17" rx="2.5" style="fill:var(--gi-hl,#fff)" opacity="0.28"/>
    <circle cx="56.5" cy="52" r="2.8" style="fill:var(--gi-hl,#fff)" opacity="0.9"/>
    <rect x="30" y="69" width="36" height="4" rx="2" fill="url(#giInkGrad)" opacity="0.7"/>
  </symbol>

  <symbol id="gi-shield" viewBox="0 0 96 96">
    <use href="#giPlate"/>
    <path fill="url(#giInkGrad)" d="M48 26s7 4 19 5v17c0 12-8 19-19 23-11-4-19-11-19-23V31c12-1 19-5 19-5z"/>
    <path d="m40 48 6 6 11-12" fill="none" style="stroke:var(--gi-hl,#fff)" stroke-width="5.5" stroke-linecap="round" stroke-linejoin="round" opacity="0.95"/>
  </symbol>

  <symbol id="gi-box" viewBox="0 0 96 96">
    <use href="#giPlate"/>
    <g fill="url(#giInkGrad)">
      <path d="M48 27 68 37v22L48 69 28 59V37l20-10z"/>
    </g>
    <path d="M28 37l20 10 20-10" fill="none" style="stroke:var(--gi-hl,#fff)" stroke-width="4" stroke-linejoin="round" opacity="0.55"/>
    <line x1="48" y1="47" x2="48" y2="69" style="stroke:var(--gi-hl,#fff)" stroke-width="4" opacity="0.35"/>
  </symbol>

  <!-- ── App / dashboard ──────────────────────────────────────── -->
  <symbol id="gi-dashboard" viewBox="0 0 96 96">
    <use href="#giPlate"/>
    <g fill="url(#giInkGrad)">
      <rect x="28" y="28" width="18" height="24" rx="5"/>
      <rect x="50" y="28" width="18" height="15" rx="5"/>
      <rect x="50" y="47" width="18" height="21" rx="5"/>
      <rect x="28" y="56" width="18" height="12" rx="5"/>
    </g>
    <rect x="30" y="30" width="14" height="6" rx="3" style="fill:var(--gi-hl,#fff)" opacity="0.3"/>
  </symbol>

  <symbol id="gi-bell" viewBox="0 0 96 96">
    <use href="#giPlate"/>
    <path fill="url(#giInkGrad)" d="M48 27c8.8 0 15 6.6 15 15.6V52l4.5 7.4a2.6 2.6 0 0 1-2.2 4H30.7a2.6 2.6 0 0 1-2.2-4L33 52v-9.4C33 33.6 39.2 27 48 27z"/>
    <path d="M42.6 66a5.6 5.6 0 0 0 10.8 0" fill="url(#giInkGrad)"/>
    <ellipse cx="42" cy="36" rx="5" ry="3.4" style="fill:var(--gi-hl,#fff)" opacity="0.35" transform="rotate(-18 42 36)"/>
  </symbol>

  <symbol id="gi-truck" viewBox="0 0 96 96">
    <use href="#giPlate"/>
    <g fill="url(#giInkGrad)">
      <rect x="26" y="36" width="28" height="21" rx="4"/>
      <path d="M54 43h10l6 8v6a3 3 0 0 1-3 3h-13V43z"/>
    </g>
    <circle cx="37" cy="62" r="5.4" fill="url(#giInkGrad)" style="stroke:var(--gi-hl,#fff)" stroke-width="2.4" stroke-opacity="0.8"/>
    <circle cx="60" cy="62" r="5.4" fill="url(#giInkGrad)" style="stroke:var(--gi-hl,#fff)" stroke-width="2.4" stroke-opacity="0.8"/>
    <rect x="28" y="38" width="24" height="6" rx="3" style="fill:var(--gi-hl,#fff)" opacity="0.28"/>
  </symbol>

  <symbol id="gi-wrench" viewBox="0 0 96 96">
    <use href="#giPlate"/>
    <path fill="url(#giInkGrad)" d="M63 28a12.6 12.6 0 0 0-13 17L29 66a5.4 5.4 0 1 0 7.6 7.6l21-21A12.6 12.6 0 0 0 74 39l-7.4 7.4-8.4-2.2-2.2-8.4L63 28z"/>
    <ellipse cx="60" cy="34" rx="5" ry="3" style="fill:var(--gi-hl,#fff)" opacity="0.35" transform="rotate(-24 60 34)"/>
  </symbol>

  <symbol id="gi-folder" viewBox="0 0 96 96">
    <use href="#giPlate"/>
    <path fill="url(#giInkGrad)" d="M28 34a5 5 0 0 1 5-5h11l5 6h19a5 5 0 0 1 5 5v25a5 5 0 0 1-5 5H33a5 5 0 0 1-5-5V34z"/>
    <rect x="30" y="41" width="36" height="6" rx="3" style="fill:var(--gi-hl,#fff)" opacity="0.3"/>
  </symbol>

  <symbol id="gi-receipt" viewBox="0 0 96 96">
    <use href="#giPlate"/>
    <path fill="url(#giInkGrad)" d="M33 27h30v42l-5-3-5 3-5-3-5 3-5-3-5 3V27z"/>
    <g style="stroke:var(--gi-hl,#fff)" stroke-width="4" stroke-linecap="round" opacity="0.75">
      <line x1="40" y1="38" x2="56" y2="38"/><line x1="40" y1="47" x2="56" y2="47"/><line x1="40" y1="56" x2="50" y2="56"/>
    </g>
  </symbol>

  <symbol id="gi-users" viewBox="0 0 96 96">
    <use href="#giPlate"/>
    <g fill="url(#giInkGrad)">
      <circle cx="41" cy="41" r="8.5"/>
      <path d="M26 66c1.7-9 7.2-13 15-13s13.3 4 15 13"/>
      <circle cx="59" cy="43" r="6.5" opacity="0.75"/>
      <path d="M58 53c6.5.4 10.6 4 12 12" opacity="0.75"/>
    </g>
  </symbol>

  <symbol id="gi-chart" viewBox="0 0 96 96">
    <use href="#giPlate"/>
    <g fill="url(#giInkGrad)">
      <rect x="30" y="50" width="9" height="19" rx="3"/>
      <rect x="43.5" y="40" width="9" height="29" rx="3"/>
      <rect x="57" y="30" width="9" height="39" rx="3"/>
    </g>
    <rect x="57" y="32" width="9" height="6" rx="3" style="fill:var(--gi-hl,#fff)" opacity="0.32"/>
  </symbol>

  <symbol id="gi-logout" viewBox="0 0 96 96">
    <use href="#giPlate"/>
    <path fill="url(#giInkGrad)" d="M33 29h16a4 4 0 0 1 0 8H37v22h12a4 4 0 0 1 0 8H33a4 4 0 0 1-4-4V33a4 4 0 0 1 4-4z"/>
    <path d="M54 39l10 9-10 9M64 48H46" fill="none" stroke="url(#giInkGrad)" stroke-width="6" stroke-linecap="round" stroke-linejoin="round"/>
  </symbol>
</svg>
